<?xml version="1.0" encoding="UTF-8"?>
<svg version="1.1" xmlns="http://www.w3.org/2000/svg" width="48" height="48">
<path d="M0 0 C2.38238675 1.4464491 4.13038703 2.9390075 6.046875 4.95703125 C6.96919922 5.83294922 6.96919922 5.83294922 7.91015625 6.7265625 C13.18947556 12.87970017 12.77743584 20.04872551 12.55078125 27.75 C12.13883468 33.03072886 10.47892063 36.72956357 6.421875 40.20703125 C5.638125 40.78453125 4.854375 41.36203125 4.046875 41.95703125 C3.551875 42.94703125 3.551875 42.94703125 3.046875 43.95703125 C-4.09410109 48.4770581 -12.79691007 48.11148488 -20.953125 46.95703125 C-24.79044423 45.62231152 -27.17204831 43.88544975 -29.953125 40.95703125 C-30.56800781 40.37308594 -31.18289062 39.78914063 -31.81640625 39.1875 C-37.02934907 33.11172526 -36.96768382 25.86159916 -36.52734375 18.22265625 C-35.94034784 12.56682142 -34.08005257 8.87631466 -29.953125 4.95703125 C-29.36917969 4.34214844 -28.78523438 3.72726563 -28.18359375 3.09375 C-20.85154011 -3.19706525 -8.80369285 -3.10924073 0 0 Z " fill="#F9F9F9" transform="translate(35.953125,1.04296875)"/>
<path d="M0 0 C1.15886719 0.01546875 2.31773438 0.0309375 3.51171875 0.046875 C6.3125 0.25 6.3125 0.25 7.3125 1.25 C7.35330783 3.24958364 7.35504356 5.25045254 7.3125 7.25 C6.68601562 7.29898437 6.05953125 7.34796875 5.4140625 7.3984375 C4.59679687 7.47320313 3.77953125 7.54796875 2.9375 7.625 C2.12539063 7.69460937 1.31328125 7.76421875 0.4765625 7.8359375 C-1.89084191 8.07892588 -1.89084191 8.07892588 -3.6875 10.25 C-4.0051246 12.16006306 -4.0051246 12.16006306 -3.9375 14.25 C-3.94265625 14.95125 -3.9478125 15.6525 -3.953125 16.375 C-3.84455515 18.4935669 -3.84455515 18.4935669 -1.6875 20.25 C0.51500992 20.71006346 0.51500992 20.71006346 2.9375 20.875 C3.75476563 20.94976563 4.57203125 21.02453125 5.4140625 21.1015625 C6.04054688 21.15054687 6.66703125 21.19953125 7.3125 21.25 C7.6425 23.56 7.9725 25.87 8.3125 28.25 C2.52531238 29.69679691 -2.5295419 30.28747985 -7.9375 27.6875 C-11.67328067 24.37623986 -14.11057885 21.24057084 -15.0703125 16.265625 C-15.38296954 10.88792398 -13.76097245 7.60408597 -10.6875 3.25 C-7.29180822 -0.06869197 -4.6520165 -0.1041885 0 0 Z " fill="#0F0F0F" transform="translate(18.6875,9.75)"/>
<path d="M0 0 C1.65 0 3.3 0 5 0 C5 1.98 5 3.96 5 6 C6.65 6 8.3 6 10 6 C10 7.98 10 9.96 10 12 C8.35 12 6.7 12 5 12 C5.33 14.64 5.66 17.28 6 20 C6.99 20.33 7.98 20.66 9 21 C9.042721 22.66611905 9.04063832 24.33382885 9 26 C7.4211316 27.5788684 5.80707663 27.28319742 3.625 27.375 C-0.67439086 27.28614137 -0.67439086 27.28614137 -3.0625 25.1875 C-4.45200034 20.46319884 -4.23111445 15.88764263 -4 11 C-4.66 11 -5.32 11 -6 11 C-6 9.68 -6 8.36 -6 7 C-4.68 7 -3.36 7 -2 7 C-1.855625 6.21625 -1.71125 5.4325 -1.5625 4.625 C-1 2 -1 2 0 0 Z " fill="#0C0C0C" transform="translate(34,11)"/>
<path d="M0 0 C1.4606285 2.64738916 2 3.89448334 2 7 C-1.3 7 -4.6 7 -8 7 C-8 6.67 -8 6.34 -8 6 C-4.535 5.505 -4.535 5.505 -1 5 C-0.67 3.35 -0.34 1.7 0 0 Z " fill="#AAAAAA" transform="translate(43,32)"/>
</svg>
