<?xml version="1.0" encoding="UTF-8"?>
<svg version="1.1" xmlns="http://www.w3.org/2000/svg" width="48" height="48">
<path d="M0 0 C2.38238675 1.4464491 4.13038703 2.9390075 6.046875 4.95703125 C6.96919922 5.83294922 6.96919922 5.83294922 7.91015625 6.7265625 C13.56412527 13.31636088 12.8877442 21.70471858 12.296875 29.92333984 C11.94058509 32.82167478 11.26733678 35.30582543 10.046875 37.95703125 C9.056875 38.28703125 8.066875 38.61703125 7.046875 38.95703125 C6.44875 39.74078125 5.850625 40.52453125 5.234375 41.33203125 C2.37736395 44.76044451 -0.50673794 46.55435317 -4.98217773 47.29101562 C-12.09436032 47.84589502 -19.94729497 48.36927281 -26.203125 44.51953125 C-28.18359375 42.8203125 -28.18359375 42.8203125 -29.953125 40.95703125 C-30.56800781 40.37308594 -31.18289062 39.78914063 -31.81640625 39.1875 C-37.02934907 33.11172526 -36.96768382 25.86159916 -36.52734375 18.22265625 C-35.94034784 12.56682142 -34.08005257 8.87631466 -29.953125 4.95703125 C-29.36917969 4.34214844 -28.78523438 3.72726563 -28.18359375 3.09375 C-20.85154011 -3.19706525 -8.80369285 -3.10924073 0 0 Z " fill="#259DED" transform="translate(35.953125,1.04296875)"/>
<path d="M0 0 C2 1.75 2 1.75 2.9375 3.75 C3 5.75 3 5.75 1 8.75 C0.29875 8.605625 -0.4025 8.46125 -1.125 8.3125 C-2.07375 8.126875 -3.0225 7.94125 -4 7.75 C-5.03125 7.5025 -6.0625 7.255 -7.125 7 C-9.91787515 6.50463437 -9.91787515 6.50463437 -11.875 7.6875 C-13.60672121 10.86232221 -13.72561605 14.2215141 -13 17.75 C-11.86778101 19.5802449 -11.86778101 19.5802449 -10 20.75 C-7.59084105 21.14991425 -7.59084105 21.14991425 -5 21 C-4.13375 20.98453125 -3.2675 20.9690625 -2.375 20.953125 C0.14823779 20.8307181 0.14823779 20.8307181 3 19.75 C3 22.06 3 24.37 3 26.75 C-2.00468175 29.74323071 -7.35010862 29.34751194 -13 28.75 C-17.20361398 26.90630966 -18.56040962 25.49730365 -20.875 21.5625 C-22.56985475 15.81882557 -22.77273328 11.15910964 -20.9375 5.4375 C-15.80144903 -1.68669973 -7.93338302 -3.30557626 0 0 Z " fill="#F5FAFE" transform="translate(24,10.25)"/>
<path d="M0 0 C1.11375 0.185625 1.11375 0.185625 2.25 0.375 C2.25 2.355 2.25 4.335 2.25 6.375 C4.23 6.375 6.21 6.375 8.25 6.375 C8.25 8.355 8.25 10.335 8.25 12.375 C6.27 12.375 4.29 12.375 2.25 12.375 C2.25 15.015 2.25 17.655 2.25 20.375 C4.23 20.375 6.21 20.375 8.25 20.375 C8.63218767 22.03114657 8.96395102 23.69957024 9.25 25.375 C7.59233202 27.03266798 5.64653595 26.58549503 3.375 26.625 C2.49070312 26.65078125 1.60640625 26.6765625 0.6953125 26.703125 C-1.75 26.375 -1.75 26.375 -3.55859375 25.24609375 C-5.28984402 22.52717939 -5.04032366 20.37503338 -4.9375 17.1875 C-4.91042969 16.10082031 -4.88335937 15.01414062 -4.85546875 13.89453125 C-4.82066406 13.06308594 -4.78585938 12.23164063 -4.75 11.375 C-5.74 11.375 -6.73 11.375 -7.75 11.375 C-7.16155993 6.37325939 -5.51571413 0.75214284 0 0 Z " fill="#F4FAFE" transform="translate(37.75,12.625)"/>
</svg>